<svg xmlns="http://www.w3.org/2000/svg" width="256" height="256" id="certificate"><linearGradient id="a" x1="251.593" x2="240.905" y1="-130.976" y2="-180.141" gradientTransform="matrix(1 0 0 -1 -178 -11)" gradientUnits="userSpaceOnUse"><stop offset="0" stop-color="#f15454"></stop><stop offset="1" stop-color="#d93b3b"></stop></linearGradient><path fill="url(#a)" d="m102.07 137.227-10.717-8.004.53-4.424c-1.84-2.59-10.337-1.806-13.493-1.456l-37.823 4.188c-3.154.35-3.761 2.322-1.345 4.382l10.004 8.532c2.416 2.061 6.953 3.298 10.081 2.748l17.867-3.131-5.376 28.224c-.594 3.122.826 3.907 3.157 1.754l26.778-23.976c-.191-3.994 2.882-6.938.337-8.837z"></path><linearGradient id="b" x1="181.016" x2="431" y1="-161.136" y2="-161.136" gradientTransform="matrix(1 0 0 -1 -178 -11)" gradientUnits="userSpaceOnUse"><stop offset="0" stop-color="#4aa6d3"></stop><stop offset="1" stop-color="#328ebb"></stop></linearGradient><path fill="url(#b)" d="M252.461 185.689c-10.518-7.356-231.52-140.418-231.52-140.418L3.333 63.135s-.89 1.74.312 2.589c7.897 5.558 67.337 40.294 101.347 82.61 36.408 45.303 49.253 49.236 85.003 105.521.676 1.063 2.653 1.717 4.853.449 7.8-4.495 64.234-50.824 57.613-68.615z"></path><linearGradient id="c" x1="382.615" x2="431" y1="-226.947" y2="-226.947" gradientTransform="matrix(1 0 0 -1 -178 -11)" gradientUnits="userSpaceOnUse"><stop offset="0" stop-color="#367899"></stop><stop offset="1" stop-color="#236281"></stop></linearGradient><path fill="url(#c)" d="M204.666 215.945s-.113 30.32 0 30.259c.416-.065.811-.138 1.219-.206 18.562-15.212 51.738-46.436 46.576-60.309h-7.15l-40.645 30.256z" opacity=".2"></path><linearGradient id="d" x1="380.416" x2="360.221" y1="-42.908" y2="-85.134" gradientTransform="scale(1 -1) rotate(-17.17 77.588 725.164)" gradientUnits="userSpaceOnUse"><stop offset="0" stop-color="#e3e3e3"></stop><stop offset="1" stop-color="#e2e2e2"></stop></linearGradient><path fill="url(#d)" d="M3.016 37.918C2.552 37.436 12.794 3.965 41.571 1c0 0 110.777 115.63 210.89 184.689 0 0-29.383 14.582-47.209 59.617-.447 1.125-.99 1.383-1.754.403-45.633-58.585-72.533-80.769-99.52-106.745C76.539 112.552 3.479 38.403 3.016 37.918z"></path><path fill="#2C2C2C" d="M83.788 119.156c7.865 7.802 14.883 14.701 20.19 19.81.656.632 1.312 1.259 1.968 1.888 5.506-13.877 19.497-43.803 37.363-42.551l-.094-.086a1885.846 1885.846 0 0 1-28.191-25.608c-5.538-2.484-24.96 14.159-31.236 46.547z" opacity=".2"></path><linearGradient id="e" x1="358.232" x2="348.974" y1="-39.848" y2="-82.436" gradientTransform="scale(1 -1) rotate(-17.17 77.588 725.164)" gradientUnits="userSpaceOnUse"><stop offset="0" stop-color="#f15454"></stop><stop offset="1" stop-color="#d93b3b"></stop></linearGradient><path fill="url(#e)" d="m81.185 123.022 20.548 23.042s17.127-50.479 40.353-48.854c.418-.279-21.759-20.341-28.175-25.928-4.891-4.256-27.561 14.453-32.726 51.74z"></path></svg>