<svg xmlns="http://www.w3.org/2000/svg" data-name="Layer 1" viewBox="0 0 64 64" id="review"><path fill="#e3fcfd" d="M45 2H17L2 17v31a3 3 0 0 0 3 3h40a3 3 0 0 0 3-3V5a3 3 0 0 0-3-3Z"></path><path fill="#e3fcfd" d="M14 17a3 3 0 0 0 3-3V2L2 17Z"></path><path fill="#42eaf5" d="m52.6 44 2.91 5.92 6.5.96-4.71 4.61L58.41 62l-5.81-3.08L46.78 62l1.12-6.51-4.71-4.61 6.5-.96L52.6 44zM25.6 44l2.91 5.92 6.5.96-4.71 4.61L31.41 62l-5.81-3.08L19.79 62l1.1-6.51-4.7-4.61 6.5-.96L25.6 44zM38.6 22l2.91 5.93 6.5.95-4.71 4.61L44.41 40l-5.81-3.08L32.78 40l1.12-6.51-4.71-4.61 6.5-.95L38.6 22z"></path><path fill="#007da1" d="M14 19a5 5 0 0 0 5-5V4h26a1 1 0 0 1 1 1v15.79a2 2 0 0 0 4 0V5a5 5 0 0 0-5-5H17a2.09 2.09 0 0 0-1.42.59l-15 15A2 2 0 0 0 0 17v31a5 5 0 0 0 5 5h3.2a2 2 0 1 0 0-4H5a1 1 0 0 1-1-1V19Zm1-12.17V14a1 1 0 0 1-1 1H6.82Z"></path><path fill="#007da1" d="M44.41 42a2 2 0 0 0 2-2.34l-.93-5.48 3.92-3.88a2 2 0 0 0-1.11-3.4l-5.46-.8-2.44-5a2 2 0 0 0-3.59 0l-2.44 5-5.46.8a2 2 0 0 0-1.11 3.4l3.95 3.88-.93 5.48a2 2 0 0 0 2.9 2.11l4.89-2.58c.66.26 5.14 2.96 5.81 2.81zm-3.08-8.18.43 2.51-2.23-1.17a2 2 0 0 0-1.87 0l-2.23 1.17.43-2.51a2 2 0 0 0-.57-1.76l-1.82-1.79L36 29.9a2 2 0 0 0 1.5-1.09l1.12-2.27 1.11 2.27a2 2 0 0 0 1.5 1.09l2.51.37-1.84 1.79a2 2 0 0 0-.57 1.76zM31.41 64a2 2 0 0 0 2-2.34l-.93-5.48 3.95-3.88a2 2 0 0 0-1.11-3.41l-5.46-.79-2.44-5a2 2 0 0 0-3.59 0l-2.44 5-5.46.79a2 2 0 0 0-1.11 3.41l3.95 3.88-.93 5.48a2 2 0 0 0 2.9 2.11l4.89-2.58c.63.25 5.11 2.94 5.78 2.81zm-3.08-8.18.43 2.51-2.23-1.17a2 2 0 0 0-1.87 0l-2.23 1.17.43-2.51a2 2 0 0 0-.57-1.76l-1.82-1.79 2.53-.38a2 2 0 0 0 1.5-1.1l1.12-2.26 1.11 2.26a2 2 0 0 0 1.5 1.1l2.51.37-1.84 1.79a2 2 0 0 0-.57 1.76zM58.41 64a2 2 0 0 0 2-2.34l-.93-5.48 3.95-3.88a2 2 0 0 0-1.11-3.41l-5.46-.79-2.44-5a2 2 0 0 0-3.59 0l-2.44 5-5.46.79a2 2 0 0 0-1.11 3.41l4 3.88-.93 5.48a2 2 0 0 0 2.9 2.11l4.89-2.58c.58.25 5.06 2.94 5.73 2.81zm-3.08-8.18.43 2.51-2.23-1.17a2 2 0 0 0-1.87 0l-2.23 1.17.43-2.51a2 2 0 0 0-.57-1.76l-1.82-1.79 2.53-.38a2 2 0 0 0 1.5-1.1l1.12-2.26 1.11 2.26a2 2 0 0 0 1.5 1.1l2.51.37-1.84 1.79a2 2 0 0 0-.57 1.76zM25 8a2 2 0 0 0 0 4h7a2 2 0 0 0 0-4z"></path><circle cx="40" cy="10" r="2" fill="#42eaf5"></circle></svg>